<svg width="1080" height="280" viewBox="0 0 1080 280" fill="none" xmlns="http://www.w3.org/2000/svg">
  <defs>
    <linearGradient id="tm-lockup-arc" x1="60" y1="100" x2="172" y2="100" gradientUnits="userSpaceOnUse">
      <stop stop-color="#FFB938"/>
      <stop offset="1" stop-color="#FFD35A"/>
    </linearGradient>
    <linearGradient id="tm-lockup-accent" x1="86" y1="164" x2="126" y2="204" gradientUnits="userSpaceOnUse">
      <stop stop-color="#54D6F3"/>
      <stop offset="1" stop-color="#18AFCF"/>
    </linearGradient>
  </defs>
  <g transform="translate(24 24)">
    <circle cx="116" cy="116" r="92" fill="#0A1621"/>
    <path d="M44 116C44 76.2355 76.2355 44 116 44C155.765 44 188 76.2355 188 116" stroke="#193245" stroke-width="40" stroke-linecap="round"/>
    <path d="M44 116C44 76.2355 76.2355 44 116 44C155.765 44 188 76.2355 188 116" stroke="url(#tm-lockup-arc)" stroke-width="22" stroke-linecap="round" stroke-dasharray="144 82"/>
    <circle cx="116" cy="116" r="50" fill="#12283A"/>
    <circle cx="116" cy="116" r="22" fill="#F5FBFF"/>
    <path d="M116 116L160 82" stroke="#F5FBFF" stroke-width="12" stroke-linecap="round"/>
    <circle cx="160" cy="82" r="9" fill="#FFC84B"/>
    <circle cx="88" cy="166" r="12" fill="url(#tm-lockup-accent)"/>
  </g>
  <text x="268" y="122" fill="#0A1621" font-size="84" font-family="Avenir Next, Inter, sans-serif" font-weight="700" letter-spacing="-2">TokenMeter</text>
  <text x="272" y="172" fill="#537086" font-size="24" font-family="Avenir Next, Inter, sans-serif" font-weight="600" letter-spacing="2.2">LOCAL-FIRST CODEX USAGE MONITOR</text>
</svg>
