<svg width="512" height="512" viewBox="0 0 512 512" fill="none" xmlns="http://www.w3.org/2000/svg">
  <defs>
    <linearGradient id="tm-arc" x1="160" y1="228" x2="352" y2="228" gradientUnits="userSpaceOnUse">
      <stop stop-color="#FFB938"/>
      <stop offset="1" stop-color="#FFD35A"/>
    </linearGradient>
    <linearGradient id="tm-accent" x1="154" y1="332" x2="218" y2="396" gradientUnits="userSpaceOnUse">
      <stop stop-color="#54D6F3"/>
      <stop offset="1" stop-color="#18AFCF"/>
    </linearGradient>
  </defs>
  <circle cx="256" cy="256" r="148" fill="#0A1621"/>
  <path d="M140 256C140 191.935 191.935 140 256 140C320.065 140 372 191.935 372 256" stroke="#193245" stroke-width="64" stroke-linecap="round"/>
  <path d="M140 256C140 191.935 191.935 140 256 140C320.065 140 372 191.935 372 256" stroke="url(#tm-arc)" stroke-width="34" stroke-linecap="round" stroke-dasharray="230 134"/>
  <circle cx="256" cy="256" r="82" fill="#12283A"/>
  <circle cx="256" cy="256" r="36" fill="#F5FBFF"/>
  <path d="M256 256L328 200" stroke="#F5FBFF" stroke-width="18" stroke-linecap="round"/>
  <circle cx="328" cy="200" r="14" fill="#FFC84B"/>
  <path d="M182 206L196 220" stroke="#8EABBE" stroke-width="10" stroke-linecap="round"/>
  <path d="M217 176L224 194" stroke="#8EABBE" stroke-width="10" stroke-linecap="round"/>
  <path d="M295 176L288 194" stroke="#8EABBE" stroke-width="10" stroke-linecap="round"/>
  <path d="M330 206L316 220" stroke="#8EABBE" stroke-width="10" stroke-linecap="round"/>
  <circle cx="184" cy="336" r="18" fill="url(#tm-accent)"/>
</svg>
